<?xml version="1.0" encoding="UTF-8" standalone="no"?>
<svg
   xmlns:dc="http://purl.org/dc/elements/1.1/"
   xmlns:cc="http://creativecommons.org/ns#"
   xmlns:rdf="http://www.w3.org/1999/02/22-rdf-syntax-ns#"
   xmlns:svg="http://www.w3.org/2000/svg"
   xmlns="http://www.w3.org/2000/svg"
   xmlns:sodipodi="http://sodipodi.sourceforge.net/DTD/sodipodi-0.dtd"
   xmlns:inkscape="http://www.inkscape.org/namespaces/inkscape"
   version="1.1"
   id="svg2"
   xml:space="preserve"
   width="460"
   height="150"
   viewBox="0 0 450 150"
   sodipodi:docname="Exabytes_new_logo.ai"><metadata
     id="metadata8"><rdf:RDF><cc:Work
         rdf:about=""><dc:format>image/svg+xml</dc:format><dc:type
           rdf:resource="http://purl.org/dc/dcmitype/StillImage" /></cc:Work></rdf:RDF></metadata><defs
     id="defs6"><clipPath
       clipPathUnits="userSpaceOnUse"
       id="clipPath18"><path
         d="M 0,143 H 687 V 0 H 0 Z"
         id="path16" /></clipPath></defs><sodipodi:namedview
     pagecolor="#ffffff"
     bordercolor="#666666"
     borderopacity="1"
     objecttolerance="10"
     gridtolerance="10"
     guidetolerance="10"
     inkscape:pageopacity="0"
     inkscape:pageshadow="2"
     inkscape:window-width="640"
     inkscape:window-height="480"
     id="namedview4" /><g
     id="g10"
     inkscape:groupmode="layer"
     inkscape:label="Exabytes_new_logo"
     transform="matrix(1.3333333,0,0,-1.3333333,0,150)"><g
       id="g12"><g
         id="g14"
         clip-path="url(#clipPath18)"><g
           id="g20"
           transform="translate(258.9297,66.4102)"><path
             d="M 0,0 C 0,1.025 0.41,1.945 1.129,2.662 1.846,3.377 2.766,3.788 3.789,3.788 4.814,3.788 5.664,3.527 6.4,2.775 7.137,2.025 7.473,1.127 7.473,0.002 Z M 13.203,4.198 C 11.467,6.449 8.393,7.577 3.789,7.577 0.205,7.577 -2.66,6.755 -4.705,4.913 -6.857,3.174 -7.879,0.717 -7.879,-2.354 c 0,-3.275 1.022,-5.835 2.969,-7.369 1.832,-1.632 4.562,-2.459 8.699,-2.459 2.885,0 10.895,0.463 11.566,6.655 H 7.473 C 6.889,-8.184 4.924,-8.188 3.805,-8.188 c -3.672,0 -3.791,3.793 -3.791,4.102 l 15.648,-0.008 c 0,3.278 -0.82,6.039 -2.459,8.292"
             style="fill:#0071bc;fill-opacity:1;fill-rule:nonzero;stroke:none"
             id="path22" /></g><g
           id="g24"
           transform="translate(243.5747,79.0005)"><path
             d="m 0,0 -8.498,-2.66 v -2.867 h -4.094 v -4.401 h 4.094 v -9.93 c 0,-1.945 0.715,-3.273 2.254,-3.992 1.535,-0.715 3.377,-1.024 5.525,-1.024 0.92,0 1.74,0 2.66,0.102 0.924,0.104 1.946,0.207 2.868,0.309 v 4.298 c -0.102,0 -1.625,-0.212 -2.315,-0.236 -0.687,-0.025 -1.473,0.154 -1.881,0.543 C 0.072,-19.346 0,-18.834 0,-17.811 v 7.883 h 4.809 v 4.401 H 0 Z"
             style="fill:#0071bc;fill-opacity:1;fill-rule:nonzero;stroke:none"
             id="path26" /></g><g
           id="g28"
           transform="translate(216.2271,60.8828)"><path
             d="m 0,0 -4.096,12.59 h -9.209 L -4.096,-6.346 -7.162,-13.1 H 0.615 L 12.59,12.59 H 4.709 Z"
             style="fill:#0071bc;fill-opacity:1;fill-rule:nonzero;stroke:none"
             id="path30" /></g><g
           id="g32"
           transform="translate(192.2192,60.2695)"><path
             d="m 0,0 c -0.535,-1.262 -1.533,-1.742 -3.07,-1.742 -1.231,0 -2.176,0.496 -2.739,1.281 -0.546,0.762 -1.033,2.092 -1.033,4.104 0,1.318 0.194,2.867 0.701,3.984 0.409,1.023 1.534,1.789 3.071,1.789 1.74,0 2.718,-0.461 3.174,-1.535 C 0.559,6.807 0.719,5.629 0.719,4.094 0.719,2.559 0.535,1.26 0,0 m -3.465,13.166 c -1.328,-0.374 -2.519,-1.055 -3.39,-1.7 V 21.29 H -15.25 V -5.424 h 8.086 c 0.205,0.613 0.309,1.125 0.309,1.533 v 0.618 l 0.101,-0.004 c 0.512,-0.715 1.328,-1.33 2.356,-1.946 0.406,-0.201 0.816,-0.306 1.328,-0.509 0.816,-0.205 1.74,-0.309 2.763,-0.309 2.557,0 9.827,1.479 9.827,10.441 0,2.868 -0.715,4.914 -2.252,6.449 -1.434,1.433 -4.649,4.026 -10.733,2.317"
             style="fill:#0071bc;fill-opacity:1;fill-rule:nonzero;stroke:none"
             id="path34" /></g><g
           id="g36"
           transform="translate(168.269,63.0352)"><path
             d="m 0,0 c 0,-6.375 -6.653,-6.451 -7.063,-6.451 -3.48,0 -5.016,1.844 -5.016,3.685 0,2.661 2.354,3.379 6.041,3.481 0,0 4.809,0.101 6.038,0.101 z m 3.583,4.502 c 0,4.606 -3.789,6.551 -8.906,6.551 H -6.038 C -9.93,10.952 -14.124,9.62 -14.534,5.525 h 3.787 c 0.204,1.946 2.251,2.969 4.709,3.07 h 0.204 C -2.251,8.595 0,7.471 0,3.887 V 3.375 c -1.64,0 -6.347,-0.104 -6.347,-0.104 -6.652,-0.203 -9.519,-2.15 -9.519,-6.14 0,-3.479 3.175,-6.039 7.883,-6.039 3.562,0 6.343,1.023 8.086,3.275 h 0.102 c 0,-0.818 0,-1.74 0.101,-2.556 h 3.48 c -0.203,1.023 -0.203,2.146 -0.203,3.478 z"
             style="fill:#0071bc;fill-opacity:1;fill-rule:nonzero;stroke:none"
             id="path38" /></g><g
           id="g40"
           transform="translate(149.1284,73.3716)"><path
             d="M 0,0 H -4.606 L -11.054,-6.858 -17.606,0 h -4.912 l 8.6,-8.905 -9.214,-9.621 h 4.707 l 6.961,7.574 7.063,-7.574 H 0.82 l -9.622,9.621 z"
             style="fill:#0071bc;fill-opacity:1;fill-rule:nonzero;stroke:none"
             id="path42" /></g><g
           id="g44"
           transform="translate(113.3057,65.6934)"><path
             d="M 0,0 H -6.757 C -6.142,3.992 -3.583,5.835 0,5.937 H 0.204 C 3.376,5.937 6.549,4.301 6.653,0 Z M 0.305,8.395 H 0 C -6.553,8.293 -10.543,4.711 -10.543,-1.943 c 0,-5.836 3.889,-9.522 10.543,-9.623 h 0.204 c 4.094,0 9.109,1.332 9.827,6.246 H 6.242 C 5.422,-7.982 2.66,-9.109 0,-9.109 c -4.096,0.103 -6.553,2.765 -6.859,6.55 H 0 10.542 v 1.127 c 0,6.245 -3.685,9.827 -10.237,9.827"
             style="fill:#0071bc;fill-opacity:1;fill-rule:nonzero;stroke:none"
             id="path46" /></g><g
           id="g48"
           transform="translate(297.7656,63.9707)"><path
             d="m 0,0 c -1.729,1.377 -3.986,1.846 -6.564,2.492 -2.579,0.645 -5.127,0.85 -5.127,2.197 0,1.348 4.455,2.019 4.572,-0.763 h 7.773 c 0,0 0.899,6.067 -10.47,6.067 -7.413,0 -10.022,-3.401 -10.022,-5.597 0,-2.199 1.289,-4.22 6.623,-5.509 5.334,-1.289 6.885,-1.848 6.504,-3.399 -0.381,-1.552 -5.215,-2.052 -5.215,1.407 h -7.883 c 0,0 -0.058,-4.807 4.836,-6.184 4.895,-1.377 12.307,-0.732 14.768,1.787 C 1.98,-5.262 1.729,-1.377 0,0"
             style="fill:#0071bc;fill-opacity:1;fill-rule:nonzero;stroke:none"
             id="path50" /></g><g
           id="g52"
           transform="translate(45.1064,49.3418)"><path
             d="m 0,0 21.218,-12.251 c 0.848,-0.488 1.945,-0.488 2.794,0 L 45.231,0 c 0.862,0.497 1.398,1.427 1.398,2.421 v 24.503 c 0,0.995 -0.536,1.921 -1.398,2.419 L 24.012,41.595 c -0.424,0.243 -0.907,0.374 -1.397,0.374 -0.49,0 -0.972,-0.131 -1.397,-0.374 L -0.002,29.343 C -0.863,28.845 -1.397,27.918 -1.397,26.924 V 2.421 C -1.397,1.427 -0.863,0.499 0,0"
             style="fill:#0071bc;fill-opacity:1;fill-rule:nonzero;stroke:none"
             id="path54" /></g><g
           id="g56"
           transform="translate(56.8389,66.5771)"><path
             d="m 0,0 c 0.993,6.434 5.119,9.401 10.891,9.563 h 0.328 C 16.331,9.558 21.441,6.92 21.604,-0.013 l -10.719,0.008 z m 27.871,-4.138 v 1.818 c 0.006,10.061 -5.93,15.837 -16.488,15.842 h -0.49 C 0.335,13.363 -6.1,7.595 -6.106,-3.127 c -0.005,-9.402 6.26,-15.346 16.981,-15.516 h 0.329 c 6.597,-0.003 14.676,2.139 15.839,10.059 l -6.106,10e-4 c -1.322,-4.288 -5.774,-6.1 -10.059,-6.099 -6.6,0.169 -10.557,4.46 -11.047,10.559 l 11.052,-0.005 z"
             style="fill:#ffffff;fill-opacity:1;fill-rule:nonzero;stroke:none"
             id="path58" /></g></g></g></g></svg>
